<svg width="451" height="161" viewBox="0 0 451 161" fill="none" xmlns="http://www.w3.org/2000/svg">
<path d="M129.9 80.2H77L102.4 24H155.4L129.9 80.2Z" fill="#0E6DAA"/>
<path d="M77 80.2H24L49.5 24H102.4L77 80.2Z" fill="#0D5D88"/>
<path d="M157.4 136.4H104.5L129.9 80.2H182.9L157.4 136.4Z" fill="#88C562"/>
<path d="M104.5 136.4H51.5L77 80.2H129.9L104.5 136.4Z" fill="#479945"/>
<path d="M241.3 107.45H200.9V99.95L226.9 62.65H201.6V53.15H240.6V60.55L214.6 97.85H241.3V107.45Z" fill="black"/>
<path d="M281.2 107.45H250V53.15H281.2V62.55H261.4V74.45H279.8V83.85H261.4V97.85H281.1L281.2 107.45Z" fill="black"/>
<path d="M313.4 107.45H301.9V62.75H287.2V53.15H328.2V62.75H313.4V107.45Z" fill="black"/>
<path d="M357.4 107.45H345.9V62.75H331.2V53.15H372.2V62.75H357.4V107.45Z" fill="black"/>
<path d="M413.7 107.45L409.8 94.55H390L386.1 107.45H373.7L392.8 52.95H406.9L426.1 107.45H413.7ZM407.1 84.85C403.5 73.15 401.4 66.55 401 64.95C400.5 63.45 400.2 62.25 400 61.35C399.2 64.55 396.8 72.35 393 84.85H407.1Z" fill="black"/>
</svg>
